<mxfile host="app.diagrams.net" modified="2021-06-10T21:05:51.733Z" agent="5.0 (Windows NT 10.0; Win64; x64) AppleWebKit/537.36 (KHTML, like Gecko) Chrome/91.0.4472.77 Safari/537.36" etag="QWwHAWYPZJfducz7nlr5" version="14.7.7" type="github">
  <diagram id="6a731a19-8d31-9384-78a2-239565b7b9f0" name="Page-1">
    <mxGraphModel dx="465" dy="268" grid="1" gridSize="10" guides="1" tooltips="1" connect="1" arrows="1" fold="1" page="1" pageScale="1" pageWidth="1169" pageHeight="1654" math="0" shadow="0">
      <root>
        <mxCell id="0" />
        <mxCell id="1" parent="0" />
        <mxCell id="yzOGyNa0xw3fn8VId0VS-56" style="edgeStyle=orthogonalEdgeStyle;curved=0;rounded=1;sketch=0;orthogonalLoop=1;jettySize=auto;html=1;exitX=0.5;exitY=1;exitDx=0;exitDy=0;exitPerimeter=0;entryX=0.555;entryY=-0.003;entryDx=0;entryDy=0;entryPerimeter=0;" edge="1" parent="1" source="2" target="Zev38Z5F7n5SoJOV8odz-60">
          <mxGeometry relative="1" as="geometry" />
        </mxCell>
        <mxCell id="2" value="Start" style="shape=mxgraph.flowchart.terminator;strokeWidth=2;gradientDirection=north;fontStyle=0;html=1;" parent="1" vertex="1">
          <mxGeometry x="250" y="22" width="140" height="70" as="geometry" />
        </mxCell>
        <mxCell id="Zev38Z5F7n5SoJOV8odz-66" value="" style="edgeStyle=orthogonalEdgeStyle;orthogonalLoop=1;jettySize=auto;html=1;" parent="1" source="4" target="Zev38Z5F7n5SoJOV8odz-64" edge="1">
          <mxGeometry relative="1" as="geometry" />
        </mxCell>
        <mxCell id="gGJyiNB_KP4QByr4heVN-57" value="" style="edgeStyle=orthogonalEdgeStyle;orthogonalLoop=1;jettySize=auto;html=1;exitX=0.905;exitY=0.5;exitDx=0;exitDy=0;exitPerimeter=0;entryX=0.095;entryY=0.5;entryDx=0;entryDy=0;entryPerimeter=0;" parent="1" source="4" target="gGJyiNB_KP4QByr4heVN-55" edge="1">
          <mxGeometry relative="1" as="geometry" />
        </mxCell>
        <mxCell id="4" value="Ask user for choice of&amp;nbsp;&lt;br&gt;rock, paper, scissors&lt;br&gt;Use scanner" style="shape=mxgraph.flowchart.data;strokeWidth=2;gradientDirection=north;fontStyle=0;html=1;" parent="1" vertex="1">
          <mxGeometry x="230" y="510" width="180" height="80" as="geometry" />
        </mxCell>
        <mxCell id="5" value="Use Scanner&amp;nbsp; &amp;nbsp;&amp;nbsp;&lt;br&gt;Ask user how many&amp;nbsp;&lt;br&gt;games he/she wants&lt;br&gt;to play?&lt;br&gt;Between 1 and 10" style="shape=mxgraph.flowchart.data;strokeWidth=2;gradientDirection=north;fontStyle=0;html=1;" parent="1" vertex="1">
          <mxGeometry x="220" y="250" width="190" height="80" as="geometry" />
        </mxCell>
        <mxCell id="P9dPjIe4EQKLlm_fGVLW-78" value="" style="edgeStyle=orthogonalEdgeStyle;orthogonalLoop=1;jettySize=auto;html=1;entryX=0.095;entryY=0.5;entryDx=0;entryDy=0;entryPerimeter=0;" parent="1" source="6" target="P9dPjIe4EQKLlm_fGVLW-77" edge="1">
          <mxGeometry relative="1" as="geometry" />
        </mxCell>
        <mxCell id="6" value="Is the &lt;br&gt;number&lt;br&gt;valid?&amp;nbsp;&lt;br&gt;" style="shape=mxgraph.flowchart.decision;strokeWidth=2;gradientDirection=north;fontStyle=0;html=1;" parent="1" vertex="1">
          <mxGeometry x="230" y="360" width="180" height="100" as="geometry" />
        </mxCell>
        <mxCell id="9" style="entryX=0.5;entryY=0;entryPerimeter=0;fontStyle=1;strokeWidth=1;html=1;" parent="1" source="5" target="6" edge="1">
          <mxGeometry relative="1" as="geometry" />
        </mxCell>
        <mxCell id="11" value="No" style="text;fontStyle=0;html=1;strokeColor=none;fillColor=none;strokeWidth=2;" parent="1" vertex="1">
          <mxGeometry x="425" y="388" width="40" height="26" as="geometry" />
        </mxCell>
        <mxCell id="12" value="" style="edgeStyle=elbowEdgeStyle;elbow=horizontal;fontStyle=1;strokeWidth=1;html=1;" parent="1" source="6" target="4" edge="1">
          <mxGeometry width="100" height="100" as="geometry">
            <mxPoint y="100" as="sourcePoint" />
            <mxPoint x="100" as="targetPoint" />
          </mxGeometry>
        </mxCell>
        <mxCell id="14" value="Yes" style="text;fontStyle=0;html=1;strokeColor=none;fillColor=none;strokeWidth=2;align=center;" parent="1" vertex="1">
          <mxGeometry x="320" y="460" width="40" height="26" as="geometry" />
        </mxCell>
        <mxCell id="P9dPjIe4EQKLlm_fGVLW-66" value="" style="edgeStyle=orthogonalEdgeStyle;orthogonalLoop=1;jettySize=auto;html=1;" parent="1" source="28" target="34" edge="1">
          <mxGeometry relative="1" as="geometry" />
        </mxCell>
        <mxCell id="54" value="" style="edgeStyle=elbowEdgeStyle;elbow=horizontal;entryX=0.095;entryY=0.5;entryPerimeter=0;fontStyle=1;strokeWidth=1;html=1;" parent="1" target="5" edge="1">
          <mxGeometry width="100" height="100" as="geometry">
            <mxPoint x="250" y="1241.336669921875" as="sourcePoint" />
            <mxPoint x="100" as="targetPoint" />
            <Array as="points">
              <mxPoint x="100" y="750" />
            </Array>
          </mxGeometry>
        </mxCell>
        <mxCell id="4KYxazy4g8GALMdAxOC_-61" value="" style="edgeStyle=orthogonalEdgeStyle;orthogonalLoop=1;jettySize=auto;html=1;" parent="1" source="Zev38Z5F7n5SoJOV8odz-60" target="5" edge="1">
          <mxGeometry relative="1" as="geometry" />
        </mxCell>
        <mxCell id="Zev38Z5F7n5SoJOV8odz-60" value="Declare Variables&lt;br&gt;Call Methods&lt;br&gt;While loop until max/user&#39;s&lt;br&gt;input" style="text;html=1;align=center;verticalAlign=middle;whiteSpace=wrap;strokeWidth=2;strokeColor=#1A1A1A;" parent="1" vertex="1">
          <mxGeometry x="240" y="120" width="150" height="90" as="geometry" />
        </mxCell>
        <mxCell id="gGJyiNB_KP4QByr4heVN-61" value="" style="edgeStyle=orthogonalEdgeStyle;orthogonalLoop=1;jettySize=auto;html=1;entryX=0.095;entryY=0.5;entryDx=0;entryDy=0;entryPerimeter=0;" parent="1" source="Zev38Z5F7n5SoJOV8odz-64" target="gGJyiNB_KP4QByr4heVN-58" edge="1">
          <mxGeometry relative="1" as="geometry" />
        </mxCell>
        <mxCell id="4KYxazy4g8GALMdAxOC_-65" value="" style="edgeStyle=orthogonalEdgeStyle;orthogonalLoop=1;jettySize=auto;html=1;" parent="1" source="Zev38Z5F7n5SoJOV8odz-64" target="4KYxazy4g8GALMdAxOC_-63" edge="1">
          <mxGeometry relative="1" as="geometry" />
        </mxCell>
        <mxCell id="Zev38Z5F7n5SoJOV8odz-64" value="Use Random to&amp;nbsp;&lt;br&gt;generate computer&#39;s&amp;nbsp;&lt;br&gt;choice of rock,&lt;br&gt;paper or scissors" style="whiteSpace=wrap;html=1;strokeWidth=2;" parent="1" vertex="1">
          <mxGeometry x="245" y="640" width="150" height="90" as="geometry" />
        </mxCell>
        <mxCell id="gGJyiNB_KP4QByr4heVN-55" value="Display user&#39;s&amp;nbsp;&lt;br&gt;choice" style="shape=mxgraph.flowchart.data;strokeWidth=2;gradientDirection=north;fontStyle=0;html=1;" parent="1" vertex="1">
          <mxGeometry x="450" y="520" width="140" height="60" as="geometry" />
        </mxCell>
        <mxCell id="gGJyiNB_KP4QByr4heVN-58" value="Display computer&#39;s&lt;br&gt;choice" style="shape=mxgraph.flowchart.data;strokeWidth=2;gradientDirection=north;fontStyle=0;html=1;" parent="1" vertex="1">
          <mxGeometry x="435" y="655" width="140" height="60" as="geometry" />
        </mxCell>
        <mxCell id="4KYxazy4g8GALMdAxOC_-68" value="" style="edgeStyle=orthogonalEdgeStyle;orthogonalLoop=1;jettySize=auto;html=1;entryX=0.095;entryY=0.5;entryDx=0;entryDy=0;entryPerimeter=0;" parent="1" source="4KYxazy4g8GALMdAxOC_-63" target="4KYxazy4g8GALMdAxOC_-67" edge="1">
          <mxGeometry relative="1" as="geometry" />
        </mxCell>
        <mxCell id="4KYxazy4g8GALMdAxOC_-73" value="" style="edgeStyle=orthogonalEdgeStyle;orthogonalLoop=1;jettySize=auto;html=1;" parent="1" source="4KYxazy4g8GALMdAxOC_-63" target="4KYxazy4g8GALMdAxOC_-72" edge="1">
          <mxGeometry relative="1" as="geometry" />
        </mxCell>
        <mxCell id="4KYxazy4g8GALMdAxOC_-63" value="Use if/else if&lt;br&gt;to determine if user&#39;s&lt;br&gt;choice beat computer&#39;s&amp;nbsp;&lt;br&gt;choice. Store win." style="whiteSpace=wrap;html=1;strokeWidth=2;" parent="1" vertex="1">
          <mxGeometry x="246" y="760" width="150" height="80" as="geometry" />
        </mxCell>
        <mxCell id="4KYxazy4g8GALMdAxOC_-67" value="Display winner" style="shape=mxgraph.flowchart.data;strokeWidth=2;gradientDirection=north;fontStyle=0;html=1;" parent="1" vertex="1">
          <mxGeometry x="425" y="770" width="140" height="60" as="geometry" />
        </mxCell>
        <mxCell id="4KYxazy4g8GALMdAxOC_-75" style="edgeStyle=orthogonalEdgeStyle;orthogonalLoop=1;jettySize=auto;html=1;" parent="1" source="4KYxazy4g8GALMdAxOC_-72" edge="1">
          <mxGeometry relative="1" as="geometry">
            <mxPoint x="250" y="550" as="targetPoint" />
            <Array as="points">
              <mxPoint x="160" y="935" />
              <mxPoint x="160" y="550" />
            </Array>
          </mxGeometry>
        </mxCell>
        <mxCell id="P9dPjIe4EQKLlm_fGVLW-56" value="" style="edgeStyle=orthogonalEdgeStyle;orthogonalLoop=1;jettySize=auto;html=1;" parent="1" source="4KYxazy4g8GALMdAxOC_-72" target="P9dPjIe4EQKLlm_fGVLW-55" edge="1">
          <mxGeometry relative="1" as="geometry" />
        </mxCell>
        <mxCell id="P9dPjIe4EQKLlm_fGVLW-57" value="Yes" style="edgeLabel;html=1;align=center;verticalAlign=middle;resizable=0;points=[];" parent="P9dPjIe4EQKLlm_fGVLW-56" vertex="1" connectable="0">
          <mxGeometry x="0.2434" y="17" relative="1" as="geometry">
            <mxPoint as="offset" />
          </mxGeometry>
        </mxCell>
        <mxCell id="P9dPjIe4EQKLlm_fGVLW-59" value="" style="edgeStyle=orthogonalEdgeStyle;orthogonalLoop=1;jettySize=auto;html=1;entryX=0.095;entryY=0.5;entryDx=0;entryDy=0;entryPerimeter=0;" parent="1" source="4KYxazy4g8GALMdAxOC_-72" target="P9dPjIe4EQKLlm_fGVLW-58" edge="1">
          <mxGeometry relative="1" as="geometry" />
        </mxCell>
        <mxCell id="4KYxazy4g8GALMdAxOC_-72" value="(refer to pre set &lt;br&gt;while&amp;nbsp;&lt;br&gt;condition) is&amp;nbsp;&lt;br&gt;user&#39;s input&lt;br&gt;or maximum&amp;nbsp;&lt;br&gt;reached?" style="shape=mxgraph.flowchart.decision;strokeWidth=2;gradientDirection=north;fontStyle=0;html=1;" parent="1" vertex="1">
          <mxGeometry x="230" y="870" width="180" height="130" as="geometry" />
        </mxCell>
        <mxCell id="4KYxazy4g8GALMdAxOC_-77" value="No" style="text;html=1;align=center;verticalAlign=middle;resizable=0;points=[];autosize=1;strokeColor=none;" parent="1" vertex="1">
          <mxGeometry x="190" y="910" width="30" height="20" as="geometry" />
        </mxCell>
        <mxCell id="P9dPjIe4EQKLlm_fGVLW-55" value="Ask the user if he/she&amp;nbsp;&lt;br&gt;wants to play again.&lt;br&gt;" style="shape=mxgraph.flowchart.data;strokeWidth=2;gradientDirection=north;fontStyle=0;html=1;" parent="1" vertex="1">
          <mxGeometry x="230" y="1030" width="180" height="80" as="geometry" />
        </mxCell>
        <mxCell id="P9dPjIe4EQKLlm_fGVLW-61" style="edgeStyle=orthogonalEdgeStyle;orthogonalLoop=1;jettySize=auto;html=1;entryX=0.905;entryY=0.5;entryDx=0;entryDy=0;entryPerimeter=0;" parent="1" source="P9dPjIe4EQKLlm_fGVLW-58" target="P9dPjIe4EQKLlm_fGVLW-55" edge="1">
          <mxGeometry relative="1" as="geometry">
            <mxPoint x="400" y="1070" as="targetPoint" />
            <Array as="points">
              <mxPoint x="460" y="1070" />
            </Array>
          </mxGeometry>
        </mxCell>
        <mxCell id="P9dPjIe4EQKLlm_fGVLW-58" value="Display overall&lt;br&gt;winner" style="shape=mxgraph.flowchart.data;strokeWidth=2;gradientDirection=north;fontStyle=0;html=1;" parent="1" vertex="1">
          <mxGeometry x="440" y="905" width="140" height="60" as="geometry" />
        </mxCell>
        <mxCell id="P9dPjIe4EQKLlm_fGVLW-60" value="Yes" style="text;html=1;align=center;verticalAlign=middle;resizable=0;points=[];autosize=1;strokeColor=none;" parent="1" vertex="1">
          <mxGeometry x="400" y="940" width="40" height="20" as="geometry" />
        </mxCell>
        <mxCell id="P9dPjIe4EQKLlm_fGVLW-76" value="" style="edgeStyle=orthogonalEdgeStyle;orthogonalLoop=1;jettySize=auto;html=1;" parent="1" source="34" target="P9dPjIe4EQKLlm_fGVLW-75" edge="1">
          <mxGeometry relative="1" as="geometry" />
        </mxCell>
        <mxCell id="P9dPjIe4EQKLlm_fGVLW-67" value="Yes" style="text;html=1;align=center;verticalAlign=middle;resizable=0;points=[];autosize=1;strokeColor=none;" parent="1" vertex="1">
          <mxGeometry x="216" y="1210" width="40" height="20" as="geometry" />
        </mxCell>
        <mxCell id="P9dPjIe4EQKLlm_fGVLW-68" value="No" style="text;html=1;align=center;verticalAlign=middle;resizable=0;points=[];autosize=1;strokeColor=none;" parent="1" vertex="1">
          <mxGeometry x="326" y="1250" width="30" height="20" as="geometry" />
        </mxCell>
        <mxCell id="P9dPjIe4EQKLlm_fGVLW-75" value="End" style="shape=mxgraph.flowchart.terminator;strokeWidth=2;gradientDirection=north;fontStyle=0;html=1;" parent="1" vertex="1">
          <mxGeometry x="250" y="1440" width="140" height="70" as="geometry" />
        </mxCell>
        <mxCell id="P9dPjIe4EQKLlm_fGVLW-77" value="Inform user the&amp;nbsp;&lt;br&gt;input is not&lt;br&gt;valid" style="shape=mxgraph.flowchart.data;strokeWidth=2;gradientDirection=north;fontStyle=0;html=1;" parent="1" vertex="1">
          <mxGeometry x="460" y="380" width="140" height="60" as="geometry" />
        </mxCell>
        <mxCell id="34" value="Display Thank&lt;br&gt;You Message" style="shape=mxgraph.flowchart.data;strokeWidth=2;gradientDirection=north;fontStyle=0;html=1;" parent="1" vertex="1">
          <mxGeometry x="241" y="1340" width="159" height="70" as="geometry" />
        </mxCell>
        <mxCell id="28" value="Continue?&lt;br&gt;Y/N" style="shape=mxgraph.flowchart.decision;strokeWidth=2;gradientDirection=north;fontStyle=0;html=1;" parent="1" vertex="1">
          <mxGeometry x="256" y="1190" width="130" height="100" as="geometry" />
        </mxCell>
        <mxCell id="P9dPjIe4EQKLlm_fGVLW-80" value="" style="edgeStyle=orthogonalEdgeStyle;orthogonalLoop=1;jettySize=auto;html=1;endArrow=none;" parent="1" source="P9dPjIe4EQKLlm_fGVLW-55" target="28" edge="1">
          <mxGeometry relative="1" as="geometry">
            <mxPoint x="321" y="1110" as="sourcePoint" />
            <mxPoint x="321" y="1300" as="targetPoint" />
            <Array as="points" />
          </mxGeometry>
        </mxCell>
        <mxCell id="P9dPjIe4EQKLlm_fGVLW-81" value="No" style="text;html=1;align=center;verticalAlign=middle;resizable=0;points=[];autosize=1;strokeColor=none;" parent="1" vertex="1">
          <mxGeometry x="331" y="1300" width="30" height="20" as="geometry" />
        </mxCell>
      </root>
    </mxGraphModel>
  </diagram>
</mxfile>
